<svg width="42" height="18" viewBox="0 0 42 18" fill="none" xmlns="http://www.w3.org/2000/svg">
<path d="M22.749 18L41.749 12.25V15C41.749 16.6569 40.4059 18 38.749 18H22.749Z" fill="#FD6020"/>
<path fill-rule="evenodd" clip-rule="evenodd" d="M36.3637 0.38862C37.7725 0.38862 38.5473 0.993049 38.5473 2.13475C38.6177 3.00781 37.9838 3.74655 37.1385 3.88087L39.0404 6.36574H37.5612L35.9411 3.94803H35.8002V6.36574H34.6027V0.38862H36.3637ZM35.8002 3.14209H36.1524C36.9272 3.14209 37.2794 2.8063 37.2794 2.20187C37.2794 1.6646 36.9272 1.32881 36.1524 1.32881H35.8002V3.14209ZM30.4469 6.36574H33.828V5.35836H31.6444V3.74656H33.7576V2.73917H31.6444V1.396H33.828V0.38862H30.4469V6.36574ZM26.9249 4.41814L25.3048 0.38862H24.0369L26.6431 6.50006H27.2771L29.8833 0.38862H28.6154L26.9249 4.41814ZM12.6257 3.41063C12.6257 5.0896 14.0344 6.49993 15.7954 6.49993C16.3589 6.49993 16.852 6.36562 17.3451 6.16414V4.82097C16.9929 5.22392 16.4998 5.49255 15.9363 5.49255C14.8093 5.49255 13.8936 4.68665 13.8936 3.61211V3.47779C13.8231 2.40325 14.7388 1.46303 15.8659 1.39587C16.4294 1.39587 16.9929 1.66451 17.3451 2.06746V0.724286C16.9224 0.455652 16.3589 0.388493 15.8659 0.388493C14.0344 0.254175 12.6257 1.66451 12.6257 3.41063ZM10.4421 2.67196C9.73772 2.40332 9.5264 2.269 9.5264 1.93321C9.59684 1.53026 9.94904 1.19446 10.3717 1.26162C10.7239 1.26162 11.0761 1.4631 11.3578 1.73173L11.9918 0.925829C11.4987 0.522877 10.8647 0.254242 10.2308 0.254242C9.24465 0.187084 8.39938 0.925829 8.32894 1.86605V1.93321C8.32894 2.73911 8.68114 3.20922 9.80816 3.54502C10.0899 3.61218 10.3717 3.74649 10.6534 3.88081C10.8647 4.01513 11.0056 4.21661 11.0056 4.48524C11.0056 4.95535 10.583 5.3583 10.1604 5.3583H10.0899C9.5264 5.3583 9.03333 5.02251 8.82201 4.5524L8.04718 5.29114C8.46982 6.02989 9.31509 6.43284 10.1604 6.43284C11.2874 6.5 12.2031 5.6941 12.2735 4.61956V4.41808C12.2031 3.61218 11.8509 3.20922 10.4421 2.67196ZM6.35665 6.36574H7.55412V0.38862H6.35665V6.36574ZM0.791992 0.388636H2.55297H2.90516C4.5957 0.455794 5.93404 1.79897 5.86361 3.41078C5.86361 4.28384 5.44097 5.08974 4.73658 5.69417C4.10263 6.16428 3.3278 6.43292 2.55297 6.36576H0.791992V0.388636ZM2.3417 5.35842C2.90521 5.42558 3.53916 5.2241 3.96179 4.88831C4.38443 4.48535 4.59575 3.94808 4.59575 3.34366C4.59575 2.80639 4.38443 2.26912 3.96179 1.86616C3.53916 1.53037 2.90521 1.32889 2.3417 1.39605H1.9895V5.35842H2.3417Z" fill="black"/>
<path fill-rule="evenodd" clip-rule="evenodd" d="M20.9375 0.25C19.1765 0.25 17.6973 1.59317 17.6973 3.3393C17.6973 5.01827 19.106 6.4286 20.9375 6.49576C22.7689 6.56292 24.1777 5.15258 24.2481 3.40646C24.1777 1.66033 22.7689 0.25 20.9375 0.25V0.25Z" fill="#FD6020"/>
</svg>
