<svg width="12" height="12" viewBox="0 0 12 12" fill="none" xmlns="http://www.w3.org/2000/svg">
<path d="M5.31008 9.875H2.20508V4.875H9.20508V7.065L10.2051 6.065V2.875C10.2051 2.325 9.75508 1.875 9.20508 1.875H8.70508V0.875H7.70508V1.875H3.70508V0.875H2.70508V1.875H2.20508C1.65008 1.875 1.21008 2.325 1.21008 2.875L1.20508 9.875C1.20508 10.425 1.65008 10.875 2.20508 10.875H6.31008L5.31008 9.875ZM2.20508 2.875H9.20508V3.875H2.20508V2.875ZM7.97508 11.125L6.20508 9.355L6.91008 8.65L7.97008 9.71L10.0901 7.59L10.7951 8.295L7.97508 11.125ZM4.91008 6.875L5.70508 7.67L5.00008 8.375L4.20508 7.58L3.41008 8.375L2.70508 7.67L3.50008 6.875L2.70508 6.08L3.41008 5.375L4.20508 6.17L5.00008 5.375L5.70508 6.08L4.91008 6.875Z" fill="black"/>
</svg>
