<svg width="12" height="12" viewBox="0 0 12 12" fill="none" xmlns="http://www.w3.org/2000/svg">
<path d="M6.19508 5.45C5.06008 5.155 4.69508 4.85 4.69508 4.375C4.69508 3.83 5.20008 3.45 6.04508 3.45C6.93508 3.45 7.26508 3.875 7.29508 4.5H8.40008C8.36508 3.64 7.84008 2.85 6.79508 2.595V1.5H5.29508V2.58C4.32508 2.79 3.54508 3.42 3.54508 4.385C3.54508 5.54 4.50008 6.115 5.89508 6.45C7.14508 6.75 7.39508 7.19 7.39508 7.655C7.39508 8 7.15008 8.55 6.04508 8.55C5.01508 8.55 4.61008 8.09 4.55508 7.5H3.45508C3.51508 8.595 4.33508 9.21 5.29508 9.415V10.5H6.79508V9.425C7.77008 9.24 8.54508 8.675 8.54508 7.65C8.54508 6.23 7.33008 5.745 6.19508 5.45Z" fill="black"/>
</svg>
