<svg width="19" height="19" viewBox="0 0 19 19" fill="none" xmlns="http://www.w3.org/2000/svg">
<path d="M17.4167 2.375H1.58333C0.7125 2.375 0 3.0875 0 3.95833V15.0417C0 15.9125 0.7125 16.625 1.58333 16.625H17.4167C18.2875 16.625 18.9921 15.9125 18.9921 15.0417L19 3.95833C19 3.0875 18.2875 2.375 17.4167 2.375ZM17.4167 15.0417H1.58333V3.95833H17.4167V15.0417ZM16.625 4.75H11.0833V8.70833H16.625V4.75ZM15.8333 6.33333L13.8542 7.71875L11.875 6.33333V5.54167L13.8542 6.92708L15.8333 5.54167V6.33333ZM7.125 9.5C8.43125 9.5 9.5 8.43125 9.5 7.125C9.5 5.81875 8.43125 4.75 7.125 4.75C5.81875 4.75 4.75 5.81875 4.75 7.125C4.75 8.43125 5.81875 9.5 7.125 9.5ZM7.125 6.33333C7.56042 6.33333 7.91667 6.68958 7.91667 7.125C7.91667 7.56042 7.56042 7.91667 7.125 7.91667C6.68958 7.91667 6.33333 7.56042 6.33333 7.125C6.33333 6.68958 6.68958 6.33333 7.125 6.33333ZM11.875 13.1337C11.875 11.1546 8.73208 10.2996 7.125 10.2996C5.51792 10.2996 2.375 11.1546 2.375 13.1337V14.25H11.875V13.1337ZM4.33833 12.6667C4.92417 12.2708 6.09583 11.875 7.125 11.875C8.15417 11.875 9.31792 12.2629 9.91167 12.6667H4.33833Z" fill="#667085"/>
</svg>
