<svg width="15" height="15" viewBox="0 0 15 15" fill="none" xmlns="http://www.w3.org/2000/svg">
<path fill-rule="evenodd" clip-rule="evenodd" d="M7.5 14.5312C11.1244 14.5312 14.0625 11.5931 14.0625 7.96875C14.0625 4.34438 11.1244 1.40625 7.5 1.40625C3.87563 1.40625 0.9375 4.34438 0.9375 7.96875C0.9375 9.14572 1.24734 10.2503 1.78991 11.2055L0.9375 14.5312L4.36634 13.7362C5.29752 14.2432 6.36512 14.5312 7.5 14.5312ZM7.5 13.5216C10.5668 13.5216 13.0529 11.0355 13.0529 7.96875C13.0529 4.90198 10.5668 2.41587 7.5 2.41587C4.43323 2.41587 1.94712 4.90198 1.94712 7.96875C1.94712 9.15284 2.31774 10.2504 2.9493 11.1517L2.45192 13.0168L4.34997 12.5423C5.24501 13.16 6.33027 13.5216 7.5 13.5216Z" fill="#BFC8D0"/>
<path d="M13.125 7.5C13.125 10.6066 10.6066 13.125 7.5 13.125C6.31508 13.125 5.21573 12.7586 4.30906 12.133L2.38636 12.6136L2.8902 10.7243C2.25043 9.81125 1.875 8.69947 1.875 7.5C1.875 4.3934 4.3934 1.875 7.5 1.875C10.6066 1.875 13.125 4.3934 13.125 7.5Z" fill="url(#paint0_linear_3448_23914)"/>
<path fill-rule="evenodd" clip-rule="evenodd" d="M7.5 14.0625C11.1244 14.0625 14.0625 11.1244 14.0625 7.5C14.0625 3.87563 11.1244 0.9375 7.5 0.9375C3.87563 0.9375 0.9375 3.87563 0.9375 7.5C0.9375 8.67697 1.24734 9.78158 1.78991 10.7367L0.9375 14.0625L4.36634 13.2674C5.29752 13.7744 6.36512 14.0625 7.5 14.0625ZM7.5 13.0529C10.5668 13.0529 13.0529 10.5668 13.0529 7.5C13.0529 4.43323 10.5668 1.94712 7.5 1.94712C4.43323 1.94712 1.94712 4.43323 1.94712 7.5C1.94712 8.68409 2.31774 9.78162 2.9493 10.6829L2.45192 12.5481L4.34997 12.0736C5.24501 12.6912 6.33027 13.0529 7.5 13.0529Z" fill="white"/>
<path d="M5.85939 4.45229C5.70336 4.1389 5.464 4.16664 5.22219 4.16664C4.79004 4.16664 4.11621 4.68428 4.11621 5.64764C4.11621 6.43717 4.46412 7.30142 5.63645 8.59428C6.76783 9.84198 8.2544 10.4874 9.48853 10.4654C10.7227 10.4435 10.9766 9.38146 10.9766 9.02281C10.9766 8.86385 10.8779 8.78453 10.81 8.76298C10.3894 8.56115 9.61375 8.18507 9.43726 8.11441C9.26077 8.04375 9.16862 8.13932 9.11133 8.19132C8.95128 8.34384 8.63402 8.79334 8.5254 8.89444C8.41677 8.99554 8.25482 8.94438 8.18742 8.90616C7.93942 8.80664 7.267 8.50754 6.731 7.98795C6.06812 7.34537 6.02922 7.12429 5.90433 6.92749C5.80442 6.77006 5.87773 6.67346 5.91432 6.63125C6.05714 6.46645 6.25435 6.21203 6.34278 6.0856C6.43122 5.95916 6.36101 5.7672 6.31889 5.64764C6.13771 5.13345 5.98421 4.70301 5.85939 4.45229Z" fill="white"/>
<defs>
<linearGradient id="paint0_linear_3448_23914" x1="12.4219" y1="3.28125" x2="1.875" y2="13.125" gradientUnits="userSpaceOnUse">
<stop stop-color="#5BD066"/>
<stop offset="1" stop-color="#27B43E"/>
</linearGradient>
</defs>
</svg>
