<svg width="15" height="16" viewBox="0 0 15 16" fill="none" xmlns="http://www.w3.org/2000/svg">
<path d="M7.9999 5H6.7999V7.4H4.3999V8.6H6.7999V11H7.9999V8.6H10.3999V7.4H7.9999V5ZM7.3999 2C4.0879 2 1.3999 4.688 1.3999 8C1.3999 11.312 4.0879 14 7.3999 14C10.7119 14 13.3999 11.312 13.3999 8C13.3999 4.688 10.7119 2 7.3999 2ZM7.3999 12.8C4.7539 12.8 2.5999 10.646 2.5999 8C2.5999 5.354 4.7539 3.2 7.3999 3.2C10.0459 3.2 12.1999 5.354 12.1999 8C12.1999 10.646 10.0459 12.8 7.3999 12.8Z" fill="#F1F2F4"/>
</svg>
