<svg width="17" height="14" viewBox="0 0 17 14" fill="none" xmlns="http://www.w3.org/2000/svg">
<g clip-path="url(#clip0_1614_15876)">
<path d="M14.4754 14.0127C14.2554 14.0119 14.0433 13.9306 13.8791 13.784L11.3418 11.6116C11.2983 11.5738 11.2459 11.5475 11.1896 11.5354H0.786566C0.683272 11.5354 0.580992 11.515 0.485561 11.4754C0.39013 11.4358 0.303419 11.3778 0.230379 11.3047C0.15734 11.2315 0.0994011 11.1447 0.0598724 11.0491C0.0203437 10.9536 0 10.8511 0 10.7477V0.787633C0.00978281 0.585409 0.0969514 0.394722 0.243414 0.255153C0.389877 0.115583 0.584385 0.0378493 0.786566 0.0380865H16.2642C16.3675 0.0380865 16.4698 0.0584608 16.5652 0.0980444C16.6606 0.137628 16.7473 0.195644 16.8204 0.268785C16.8934 0.341926 16.9513 0.428758 16.9909 0.524321C17.0304 0.619884 17.0507 0.722309 17.0507 0.825746V10.7858C17.0507 10.8893 17.0304 10.9917 16.9909 11.0872C16.9513 11.1828 16.8934 11.2696 16.8204 11.3428C16.7473 11.4159 16.6606 11.4739 16.5652 11.5135C16.4698 11.5531 16.3675 11.5735 16.2642 11.5735H15.4396V13.1234C15.44 13.2979 15.3899 13.4688 15.2954 13.6154C15.2008 13.7619 15.0658 13.8779 14.9067 13.9492C14.7711 14.0081 14.6222 14.03 14.4754 14.0127ZM1.26866 10.2776H11.1896C11.5609 10.2756 11.9207 10.4063 12.2045 10.6461L14.1582 12.323V10.2776H15.7694V1.3085H1.30672L1.26866 10.2776Z" fill="#475467"/>
<path d="M13.5624 2.69336H3.43848V3.96378H13.5624V2.69336Z" fill="#475467"/>
<path d="M13.5624 5.05615H3.43848V6.32657H13.5624V5.05615Z" fill="#475467"/>
<path d="M13.5624 7.43188H3.43848V8.7023H13.5624V7.43188Z" fill="#475467"/>
</g>
<defs>
<clipPath id="clip0_1614_15876">
<rect width="17" height="14" fill="white"/>
</clipPath>
</defs>
</svg>
