<svg width="20" height="22" viewBox="0 0 20 22" fill="none" xmlns="http://www.w3.org/2000/svg">
<path d="M17.1593 12.0513C17.1993 11.7133 17.2293 11.3754 17.2293 11.0164C17.2293 10.6573 17.1993 10.3194 17.1593 9.98149L19.2693 8.23908C19.4593 8.08068 19.5093 7.79555 19.3893 7.56323L17.3893 3.90945C17.2693 3.67712 16.9993 3.59264 16.7793 3.67712L14.2893 4.73313C13.7693 4.31073 13.2093 3.96225 12.5993 3.69824L12.2193 0.899822C12.1893 0.64638 11.9793 0.456299 11.7293 0.456299H7.72933C7.47933 0.456299 7.26933 0.64638 7.23933 0.899822L6.85933 3.69824C6.24933 3.96225 5.68933 4.32129 5.16933 4.73313L2.67933 3.67712C2.44933 3.58208 2.18933 3.67712 2.06933 3.90945L0.0693316 7.56323C-0.0606684 7.79555 -0.000668302 8.08068 0.189332 8.23908L2.29933 9.98149C2.25933 10.3194 2.22933 10.6679 2.22933 11.0164C2.22933 11.3649 2.25933 11.7133 2.29933 12.0513L0.189332 13.7937C-0.000668302 13.9521 -0.0506684 14.2372 0.0693316 14.4695L2.06933 18.1233C2.18933 18.3556 2.45933 18.4401 2.67933 18.3556L5.16933 17.2996C5.68933 17.722 6.24933 18.0705 6.85933 18.3345L7.23933 21.1329C7.26933 21.3864 7.47933 21.5765 7.72933 21.5765H11.7293C11.9793 21.5765 12.1893 21.3864 12.2193 21.1329L12.5993 18.3345C13.2093 18.0705 13.7693 17.7115 14.2893 17.2996L16.7793 18.3556C17.0093 18.4507 17.2693 18.3556 17.3893 18.1233L19.3893 14.4695C19.5093 14.2372 19.4593 13.9521 19.2693 13.7937L17.1593 12.0513ZM9.72933 14.7124C7.79933 14.7124 6.22933 13.0545 6.22933 11.0164C6.22933 8.97828 7.79933 7.32035 9.72933 7.32035C11.6593 7.32035 13.2293 8.97828 13.2293 11.0164C13.2293 13.0545 11.6593 14.7124 9.72933 14.7124Z" fill="black"/>
</svg>
