<svg width="19" height="19" viewBox="0 0 19 19" fill="none" xmlns="http://www.w3.org/2000/svg">
<path d="M15.0417 3.16683H11.7325C11.4 2.2485 10.5292 1.5835 9.5 1.5835C8.47083 1.5835 7.6 2.2485 7.2675 3.16683H3.95833C3.0875 3.16683 2.375 3.87933 2.375 4.75016V15.8335C2.375 16.7043 3.0875 17.4168 3.95833 17.4168H15.0417C15.9125 17.4168 16.625 16.7043 16.625 15.8335V4.75016C16.625 3.87933 15.9125 3.16683 15.0417 3.16683ZM9.5 2.96891C9.82458 2.96891 10.0938 3.23808 10.0938 3.56266C10.0938 3.88725 9.82458 4.15641 9.5 4.15641C9.17542 4.15641 8.90625 3.88725 8.90625 3.56266C8.90625 3.23808 9.17542 2.96891 9.5 2.96891ZM15.0417 15.8335H3.95833V4.75016H15.0417V15.8335Z" fill="#344054"/>
<path d="M11.9383 9.52391L10.26 7.84558L5.54167 12.556V14.2502H7.20417L11.9383 9.52391Z" fill="#344054"/>
<path d="M13.3396 8.13058C13.4979 7.97225 13.4979 7.72683 13.3396 7.5685L12.2233 6.45225C12.065 6.29391 11.8196 6.29391 11.6613 6.45225L10.8221 7.29141L12.5004 8.96975L13.3396 8.13058Z" fill="#344054"/>
</svg>
