<svg width="21" height="20" viewBox="0 0 21 20" fill="none" xmlns="http://www.w3.org/2000/svg">
<path d="M10.8762 1.66602C6.29484 1.66602 2.57666 5.39935 2.57666 9.99935C2.57666 14.5993 6.29484 18.3327 10.8762 18.3327C15.4575 18.3327 19.1757 14.5993 19.1757 9.99935C19.1757 5.39935 15.4575 1.66602 10.8762 1.66602ZM10.8762 16.666C7.21608 16.666 4.23656 13.6743 4.23656 9.99935C4.23656 6.32435 7.21608 3.33268 10.8762 3.33268C14.5362 3.33268 17.5158 6.32435 17.5158 9.99935C17.5158 13.6743 14.5362 16.666 10.8762 16.666ZM11.1334 9.28268C9.66444 8.90768 9.19137 8.49935 9.19137 7.89102C9.19137 7.19102 9.84703 6.69935 10.9343 6.69935C12.0796 6.69935 12.5112 7.24935 12.5444 8.06602L13.9636 8.06602C13.9221 6.94935 13.2415 5.92435 11.897 5.59102V4.16602L9.96322 4.16602V5.57435C8.70999 5.84102 7.70575 6.65768 7.70575 7.91602C7.70575 9.40768 8.94238 10.1577 10.7434 10.591C12.3618 10.9743 12.6855 11.5493 12.6855 12.1493C12.6855 12.591 12.3618 13.3077 10.9426 13.3077C9.61464 13.3077 9.09177 12.7077 9.01708 11.941H7.58956C7.67256 13.3577 8.71829 14.1577 9.96322 14.416V15.8327H11.9053V14.441C13.1668 14.1993 14.1628 13.4743 14.1711 12.1327C14.1628 10.2993 12.5942 9.66602 11.1334 9.28268Z" fill="#667085"/>
</svg>
