<svg width="21" height="20" viewBox="0 0 21 20" fill="none" xmlns="http://www.w3.org/2000/svg">
<path d="M10.8762 5.83333V2.5L2.57666 2.5L2.57666 17.5H19.1757L19.1757 5.83333L10.8762 5.83333ZM9.21626 15.8333H4.23656V14.1667H9.21626V15.8333ZM9.21626 12.5H4.23656V10.8333H9.21626V12.5ZM9.21626 9.16667H4.23656V7.5L9.21626 7.5V9.16667ZM9.21626 5.83333L4.23656 5.83333V4.16667L9.21626 4.16667V5.83333ZM17.5158 15.8333H10.8762L10.8762 7.5L17.5158 7.5V15.8333ZM15.8559 9.16667L12.5361 9.16667L12.5361 10.8333H15.8559L15.8559 9.16667ZM15.8559 12.5H12.5361V14.1667H15.8559V12.5Z" fill="#667085"/>
</svg>
