<svg width="21" height="20" viewBox="0 0 21 20" fill="none" xmlns="http://www.w3.org/2000/svg">
<path d="M17.5158 5.83333H14.196V4.16667L12.5361 2.5L9.21626 2.5L7.55636 4.16667V5.83333H4.23656C3.32362 5.83333 2.57666 6.58333 2.57666 7.5L2.57666 11.6667C2.57666 12.2917 2.90864 12.8167 3.40661 13.1083L3.40661 15.8333C3.40661 16.7583 4.14527 17.5 5.06651 17.5H16.6858C17.6071 17.5 18.3457 16.7583 18.3457 15.8333V13.1C18.8354 12.8083 19.1757 12.275 19.1757 11.6667V7.5C19.1757 6.58333 18.4287 5.83333 17.5158 5.83333ZM9.21626 4.16667L12.5361 4.16667V5.83333L9.21626 5.83333V4.16667ZM4.23656 7.5L17.5158 7.5V11.6667H13.366L13.366 9.16667H8.38631V11.6667H4.23656V7.5ZM11.7061 12.5H10.0462V10.8333H11.7061V12.5ZM16.6858 15.8333L5.06651 15.8333V13.3333H8.38631L8.38631 14.1667L13.366 14.1667V13.3333H16.6858V15.8333Z" fill="#667085"/>
</svg>
