<svg width="212" height="212" viewBox="0 0 212 212" fill="none" xmlns="http://www.w3.org/2000/svg">
<g clip-path="url(#clip0_2521_17622)">
<path d="M105.77 170.8C141.658 170.8 170.75 141.707 170.75 105.82C170.75 69.9324 141.658 40.8398 105.77 40.8398C69.8826 40.8398 40.79 69.9324 40.79 105.82C40.79 141.707 69.8826 170.8 105.77 170.8Z" fill="#FCF05E"/>
<path d="M98.5499 112.48C99.4799 111.61 100.19 110.98 100.86 110.31C108.807 102.37 116.75 94.4298 124.69 86.4898C129.95 81.2698 137.44 81.0298 142.31 85.8698C147.18 90.7098 147.05 98.2398 141.82 103.5C130.08 115.32 118.307 127.093 106.5 138.82C100.72 144.55 92.89 144.03 87.77 137.68C82.85 131.58 77.97 125.446 73.13 119.28C68.51 113.4 69.1299 105.96 74.5499 101.71C79.9699 97.4597 87.3 98.4398 91.99 104.25C94.1 106.89 96.2099 109.54 98.5499 112.48Z" fill="#1EBEC8"/>
<path d="M100.43 114.37C106.15 109.03 111.57 103.37 117.11 97.8195L125.87 89.0795C127.87 87.0795 130.05 85.4995 132.79 85.0795C134.037 84.9416 135.299 85.0546 136.502 85.4122C137.705 85.7697 138.824 86.3645 139.793 87.1613C140.762 87.9582 141.562 88.9411 142.146 90.052C142.729 91.1628 143.084 92.3792 143.19 93.6295C143.285 96.2046 142.415 98.7225 140.75 100.69C139.55 102.13 138.12 103.4 136.75 104.69L132.21 109.25C126.51 114.97 120.8 120.683 115.08 126.389L106.67 134.759C104.54 136.869 102.56 139.029 99.5598 139.759C98.3858 140.04 97.1664 140.074 95.9786 139.859C94.7909 139.644 93.6609 139.184 92.6599 138.509C89.8799 136.749 87.9398 133.61 85.9198 131.09C83.3731 127.896 80.8331 124.7 78.2998 121.5C76.2998 119.03 73.9498 116.57 73.0598 113.5C72.6633 112.212 72.5573 110.853 72.7493 109.52C72.9412 108.187 73.4263 106.913 74.1698 105.79C74.9659 104.633 76.0046 103.663 77.2135 102.948C78.4224 102.233 79.7724 101.79 81.1698 101.649C82.5688 101.588 83.965 101.823 85.2663 102.34C86.5677 102.857 87.7448 103.644 88.7198 104.649C90.0894 106.083 91.3653 107.603 92.5398 109.2L96.5998 114.32C97.1012 114.813 97.7764 115.09 98.4799 115.09C99.1833 115.09 99.8585 114.813 100.36 114.32C100.847 113.813 101.119 113.137 101.119 112.435C101.119 111.732 100.847 111.056 100.36 110.55C99.0099 108.85 97.6598 107.14 96.2998 105.44C95.1623 103.894 93.937 102.415 92.6299 101.009C90.0888 98.452 86.752 96.8366 83.1698 96.4295C79.7326 96.1586 76.309 97.0978 73.4912 99.0847C70.6734 101.072 68.639 103.981 67.7399 107.31C66.9333 110.788 67.3573 114.439 68.9398 117.639C69.8509 119.365 70.9546 120.982 72.2299 122.46L76.3298 127.649C79.1165 131.169 81.9199 134.68 84.7399 138.18C87.0999 141.12 89.7399 143.579 93.3599 144.769C96.6617 145.788 100.223 145.549 103.36 144.1C106.97 142.51 109.6 139.369 112.36 136.649C118.793 130.256 125.21 123.85 131.61 117.43C134.81 114.216 138.006 111.003 141.2 107.79C143.99 104.99 146.64 102.32 147.83 98.4395C148.825 95.041 148.557 91.3973 147.075 88.1809C145.594 84.9645 142.999 82.3925 139.77 80.9395C136.572 79.5241 132.97 79.3145 129.63 80.3496C125.69 81.5896 122.97 84.3495 120.12 87.1795C113.68 93.5929 107.257 100.016 100.85 106.45C99.4632 107.843 98.0499 109.21 96.6099 110.55C94.1499 112.94 97.9298 116.69 100.43 114.37Z" fill="black"/>
<path d="M166.87 105.779C166.87 107.469 166.8 109.159 166.67 110.849C166.61 111.649 166.53 112.459 166.44 113.259C166.44 113.479 166.28 114.509 166.38 113.799C166.32 114.249 166.25 114.699 166.18 115.149C165.652 118.435 164.87 121.675 163.84 124.839C163.34 126.379 162.78 127.839 162.18 129.389C161.9 130.049 162.18 129.509 162.18 129.389C162.12 129.539 162.05 129.689 161.99 129.849L161.51 130.909C161.17 131.659 160.81 132.399 160.43 133.139C158.975 136.031 157.304 138.809 155.43 141.449C154.98 142.069 154.53 142.679 154.06 143.289C154.48 142.749 153.87 143.529 153.74 143.689C153.47 144.039 153.19 144.369 152.91 144.689C151.897 145.903 150.84 147.079 149.74 148.219C148.64 149.359 147.51 150.449 146.33 151.509C145.764 152.023 145.184 152.523 144.59 153.009L143.71 153.729C143.52 153.889 142.62 154.579 143.18 154.159C140.611 156.12 137.9 157.888 135.07 159.449C133.67 160.216 132.244 160.936 130.79 161.609L129.73 162.079L129.27 162.279C129.38 162.229 129.91 161.999 129.27 162.279C128.5 162.589 127.72 162.899 126.94 163.189C123.83 164.322 120.637 165.215 117.39 165.859C116.61 166.009 115.82 166.149 115.04 166.279L114.04 166.439C113.3 166.549 113.87 166.439 114.04 166.439L113.18 166.539C111.52 166.739 109.84 166.859 108.18 166.919C104.805 167.051 101.425 166.917 98.0703 166.519L97.3903 166.439H97.5303L96.3503 166.259C95.4503 166.119 94.5602 165.949 93.6702 165.769C92.0702 165.449 90.4803 165.059 88.9103 164.609C87.3403 164.159 85.8102 163.669 84.2902 163.109C83.5602 162.839 82.8403 162.549 82.1203 162.259C82.1203 162.259 81.5603 162.029 81.9503 162.199L81.6403 162.059L80.4302 161.519C77.5355 160.18 74.7415 158.632 72.0703 156.889C70.7369 156.023 69.4436 155.106 68.1902 154.139C68.8002 154.599 67.7803 153.809 67.6603 153.709C67.5403 153.609 67.1503 153.299 66.9003 153.089C66.2337 152.529 65.567 151.959 64.9003 151.379C62.5475 149.262 60.3516 146.976 58.3303 144.539C58.0903 144.249 57.8403 143.949 57.6103 143.649C57.3803 143.349 56.8703 142.709 57.2803 143.249C56.7903 142.599 56.2803 141.939 55.8303 141.249C54.9103 139.916 54.0403 138.583 53.2203 137.249C52.4003 135.916 51.6069 134.473 50.8403 132.919C50.4903 132.229 50.1603 131.539 49.8403 130.839C49.6703 130.479 49.5203 130.129 49.3603 129.779C49.2903 129.619 49.2303 129.469 49.1603 129.319C49.3803 129.809 49.1603 129.419 49.0903 129.139C47.8669 126.136 46.8643 123.048 46.0903 119.899C45.7003 118.299 45.3803 116.689 45.0903 115.059L44.9103 113.879C44.8303 113.279 44.9803 114.449 44.9103 113.879L44.8503 113.369C44.7403 112.449 44.6503 111.539 44.5803 110.619C44.3202 107.244 44.3202 103.854 44.5803 100.479C44.6403 99.6694 44.7203 98.8694 44.8203 98.0694C44.8203 97.8394 44.8203 97.6093 44.9003 97.3793C44.9003 97.4394 44.8203 97.9694 44.9003 97.5294L45.1103 96.1794C45.3703 94.5494 45.7003 92.9394 46.1103 91.3494C46.8732 88.1486 47.876 85.0097 49.1103 81.9594C49.2703 81.5594 49.1102 82.0294 49.0502 82.0894L49.3203 81.4794C49.4703 81.1294 49.6302 80.7694 49.7902 80.4194C50.1402 79.6694 50.5003 78.9294 50.8803 78.1894C51.6003 76.7694 52.3736 75.376 53.2003 74.0094C54.0203 72.6494 54.8902 71.3294 55.8102 70.0094C56.2502 69.3894 56.7102 68.7694 57.1702 68.1594C56.7502 68.7294 57.3603 67.9294 57.5003 67.7594C57.7703 67.4194 58.0403 67.0794 58.3203 66.7594C60.3864 64.2901 62.629 61.9741 65.0303 59.8294C65.597 59.3228 66.177 58.8228 66.7703 58.3294L67.6603 57.6095L68.0402 57.2994C68.8602 56.6494 67.7102 57.5594 68.1902 57.1894C69.4502 56.2294 70.7469 55.3161 72.0803 54.4494C74.7531 52.7089 77.5507 51.1681 80.4503 49.8394L81.6603 49.2994C81.7649 49.2408 81.8755 49.1938 81.9903 49.1594C82.8103 48.8294 83.6403 48.5094 84.4703 48.1594C85.9969 47.6127 87.5403 47.1194 89.1003 46.6794C90.6703 46.2494 92.2703 45.8694 93.8703 45.5494C94.6503 45.3894 95.4303 45.2493 96.2203 45.1293C96.6103 45.0593 97.0103 44.9994 97.4003 44.9494C96.8303 45.0194 98.0003 44.8594 97.4003 44.9494L98.0803 44.8695C101.496 44.4798 104.936 44.3593 108.37 44.5094C110.05 44.5794 111.72 44.7094 113.37 44.9094L113.88 44.9794C113.16 44.8894 113.76 44.9794 113.88 44.9794L115.07 45.1594C115.91 45.2994 116.75 45.4495 117.58 45.6195C120.77 46.2724 123.905 47.1648 126.96 48.2894C127.69 48.5594 128.41 48.8393 129.13 49.1293C129.29 49.1993 129.85 49.4193 129.13 49.1293L129.59 49.3294L130.95 49.9394C132.404 50.6061 133.827 51.3328 135.22 52.1195C136.61 52.8895 137.97 53.7194 139.29 54.5894C139.93 55.0094 140.57 55.4394 141.19 55.8894L142.12 56.5594L142.52 56.8494L142.92 57.1594L143.57 57.6694L144.45 58.3994C145.08 58.9194 145.7 59.4594 146.31 60.0094C147.52 61.0994 148.7 62.2394 149.83 63.4194C150.96 64.5994 151.97 65.7494 152.98 66.9694C153.22 67.2594 153.47 67.5595 153.7 67.8595L154.01 68.2495C153.68 67.7995 154.37 68.6995 154.01 68.2495C154.51 68.9095 155.01 69.5695 155.46 70.2495C157.291 72.8526 158.929 75.5865 160.36 78.4294C160.71 79.1194 161.04 79.8194 161.36 80.5194L161.84 81.5794C161.84 81.6794 162.15 82.3194 161.97 81.8994C161.79 81.4794 162.08 82.1494 162.1 82.2194C162.72 83.7594 163.3 85.3294 163.81 86.9194C164.799 90.0384 165.551 93.2274 166.06 96.4594L166.24 97.6494C166.14 96.9194 166.24 97.9594 166.3 98.1894C166.39 98.9894 166.47 99.7894 166.53 100.599C166.66 102.289 166.72 103.979 166.73 105.669C166.73 106.664 167.125 107.618 167.829 108.321C168.532 109.024 169.486 109.419 170.48 109.419C171.475 109.419 172.429 109.024 173.132 108.321C173.835 107.618 174.23 106.664 174.23 105.669C174.222 91.4862 169.832 77.652 161.66 66.0594C153.511 54.6222 142.1 45.9093 128.92 41.0594C112.238 34.9981 93.8573 35.6258 77.6271 42.811C61.397 49.9961 48.5759 63.1816 41.8482 79.6066C35.1205 96.0317 35.008 114.423 41.5342 130.929C48.0605 147.435 60.7193 160.776 76.8603 168.159C90.1776 174.184 105.05 175.877 119.38 172.999C133.05 170.185 145.538 163.275 155.184 153.19C164.83 143.104 171.177 130.32 173.38 116.539C173.943 112.946 174.237 109.316 174.26 105.679C174.26 104.685 173.865 103.731 173.162 103.028C172.459 102.325 171.505 101.929 170.51 101.929C169.516 101.929 168.562 102.325 167.859 103.028C167.155 103.731 166.76 104.685 166.76 105.679L166.87 105.779Z" fill="black"/>
<path d="M108.271 25.8509V2.42086C108.271 -0.799141 103.271 -0.799141 103.271 2.42086V25.8509C103.271 29.0709 108.271 29.0709 108.271 25.8509Z" fill="#231F20"/>
<path d="M108.271 209.14V185.69C108.271 182.47 103.271 182.46 103.271 185.69V209.12C103.271 212.34 108.271 212.34 108.271 209.12V209.14Z" fill="#231F20"/>
<path d="M67.9697 35.3003L57.7197 17.5503L56.2497 15.0004C54.6397 12.2204 50.3197 14.7303 51.9297 17.5303L62.1797 35.2803L63.6497 37.8203C65.2597 40.6103 69.5797 38.0903 67.9697 35.3003Z" fill="#231F20"/>
<path d="M159.61 194.029L149.36 176.279L147.891 173.739C146.291 170.949 141.96 173.469 143.58 176.259L153.83 194.009L155.29 196.549C156.9 199.339 161.22 196.819 159.61 194.029Z" fill="#231F20"/>
<path d="M37.8102 63.6894L20.1003 53.4094L17.5602 51.9394C14.7702 50.3294 12.2502 54.6494 15.0402 56.2594L32.7902 66.5094L35.3302 67.9695C38.1202 69.5795 40.6403 65.2694 37.8503 63.6594L37.8102 63.6894Z" fill="#231F20"/>
<path d="M196.55 155.3L178.79 145.05L176.25 143.58C173.46 141.97 170.94 146.29 173.73 147.9L191.48 158.15L194.02 159.62C196.81 161.23 199.33 156.91 196.55 155.3Z" fill="#231F20"/>
<path d="M25.84 103.279H2.41012C-0.809883 103.279 -0.809883 108.279 2.41012 108.279H25.84C29.06 108.279 29.07 103.279 25.84 103.279Z" fill="#231F20"/>
<path d="M209.1 103.279H185.7C182.48 103.279 182.48 108.279 185.7 108.279H209.1C212.32 108.279 212.32 103.279 209.1 103.279Z" fill="#231F20"/>
<path d="M35.2901 143.58L17.5401 153.83L15.0002 155.3C12.2102 156.91 14.7302 161.23 17.5202 159.62L35.2702 149.37L37.8101 147.9C40.6001 146.29 38.0801 141.97 35.2901 143.58Z" fill="#231F20"/>
<path d="M194.02 51.9402L176.27 62.1902L173.73 63.6601C170.94 65.2601 173.46 69.5902 176.25 67.9702L194 57.6902L196.55 56.2302C199.33 54.6202 196.82 50.3001 194.02 51.9101V51.9402Z" fill="#231F20"/>
<path d="M63.6497 173.739L53.3997 191.489L51.9297 194.029C50.3197 196.819 54.6397 199.339 56.2497 196.549L66.4997 178.799L67.9697 176.259C69.5797 173.469 65.2597 170.949 63.6497 173.739Z" fill="#231F20"/>
<path d="M155.29 15.0004L145.04 32.7602L143.58 35.3003C141.97 38.0903 146.28 40.6103 147.89 37.8203L158.14 20.0703L159.61 17.5303C161.22 14.7403 156.9 12.2204 155.29 15.0004Z" fill="#231F20"/>
</g>
<defs>
<clipPath id="clip0_2521_17622">
<rect width="211.55" height="211.55" fill="white"/>
</clipPath>
</defs>
</svg>
