<svg width="12" height="12" viewBox="0 0 12 12" fill="none" xmlns="http://www.w3.org/2000/svg">
<g clip-path="url(#clip0_1788_12408)">
<path d="M1.9668 4.75H8.9668V5.75H9.9668V2.75C9.9668 2.2 9.5168 1.75 8.9668 1.75H8.4668V0.75H7.4668V1.75H3.4668V0.75H2.4668V1.75H1.9668C1.4118 1.75 0.971797 2.2 0.971797 2.75L0.966797 9.75C0.966797 10.3 1.4118 10.75 1.9668 10.75H5.4668V9.75H1.9668V4.75ZM1.9668 2.75H8.9668V3.75H1.9668V2.75ZM10.8868 7.89L10.5318 8.245L9.4718 7.185L9.8268 6.83C10.0218 6.635 10.3368 6.635 10.5318 6.83L10.8868 7.185C11.0818 7.38 11.0818 7.695 10.8868 7.89ZM9.1168 7.54L10.1768 8.6L7.5268 11.25H6.4668V10.19L9.1168 7.54Z" fill="black"/>
</g>
<defs>
<clipPath id="clip0_1788_12408">
<rect width="12" height="12" fill="white"/>
</clipPath>
</defs>
</svg>
