<svg width="100" height="112" viewBox="0 0 100 112" fill="none" xmlns="http://www.w3.org/2000/svg">
<circle cx="78.5" cy="89.5" r="15.5" fill="#E6DA53"/>
<g clip-path="url(#clip0_2796_21664)">
<path d="M29.3021 63.5237C28.5407 63.5353 27.7998 63.774 27.1727 64.2096C26.5456 64.6453 26.0604 65.2585 25.7783 65.9719C25.4962 66.6853 25.4298 67.467 25.5875 68.2184C25.7451 68.9698 26.1198 69.6573 26.6642 70.1942C27.2087 70.7312 27.8986 71.0936 28.6469 71.2356C29.3952 71.3777 30.1684 71.2932 30.8691 70.9926C31.5699 70.6921 32.1667 70.189 32.5844 69.5469C33.0022 68.9047 33.222 68.1522 33.2164 67.3842C33.2107 66.8714 33.105 66.3648 32.9052 65.8933C32.7054 65.4218 32.4154 64.9946 32.052 64.6361C31.6885 64.2776 31.2585 63.9949 30.7867 63.804C30.3149 63.6132 29.8104 63.5179 29.3021 63.5237Z" fill="black"/>
<path d="M43.8669 71.3049C44.6292 71.302 45.3735 71.0713 46.0059 70.6419C46.6382 70.2125 47.1302 69.6037 47.4197 68.8924C47.7093 68.1811 47.7833 67.3992 47.6324 66.6455C47.4816 65.8918 47.1127 65.2001 46.5724 64.6578C46.032 64.1154 45.3444 63.7468 44.5964 63.5985C43.8485 63.4501 43.0737 63.5287 42.37 63.8243C41.6662 64.1199 41.0652 64.6192 40.6426 65.2592C40.2201 65.8992 39.9951 66.6511 39.9961 67.42C40.005 68.4509 40.4163 69.4368 41.1408 70.164C41.8654 70.8911 42.8448 71.301 43.8669 71.3049Z" fill="black"/>
<path d="M58.2905 71.3046C59.0524 71.3141 59.8 71.0958 60.439 70.6771C61.0779 70.2585 61.5796 69.6583 61.8807 68.9523C62.1818 68.2463 62.2688 67.4661 62.1308 66.7103C61.9927 65.9544 61.6357 65.2568 61.1049 64.7054C60.5741 64.154 59.8933 63.7736 59.1484 63.6122C58.4034 63.4507 57.6277 63.5155 56.9193 63.7983C56.2108 64.0811 55.6012 64.5693 55.1676 65.2012C54.7339 65.8332 54.4955 66.5805 54.4826 67.349C54.4734 68.3811 54.8681 69.3753 55.581 70.1158C56.2938 70.8563 57.2674 71.2834 58.2905 71.3046Z" fill="black"/>
<path d="M86.5613 69.5939C86.5613 63.8772 86.5532 58.1597 86.5371 52.4414C86.5178 45.3647 82.301 39.6496 76.1609 37.5242C75.7176 37.291 75.2368 37.139 74.7408 37.0752C74.6465 37.0605 74.5497 37.0508 74.4553 37.041C73.2815 36.7752 72.0827 36.6377 70.8797 36.631C69.883 36.631 68.8838 36.631 67.8556 36.631C67.4081 36.6164 66.9557 36.631 66.4621 36.631V35.4329C66.4621 33.2854 66.4621 31.138 66.4621 28.9906C66.4621 27.5655 66.4621 26.1412 66.4621 24.7178C66.4621 24.2297 66.4621 23.7417 66.4621 23.2536C66.4621 22.8949 66.45 22.5411 66.4331 22.1872C66.4331 22.0359 66.4162 21.887 66.4065 21.7358C66.3968 21.5845 66.3847 21.4161 66.3726 21.2477C66.3605 21.0793 66.3388 20.8719 66.317 20.684C66.317 20.5571 66.2904 20.44 66.2758 20.3033C66.2516 20.1154 66.2275 19.9275 66.1984 19.7396C66.1791 19.6014 66.1573 19.4623 66.1331 19.3224C66.1065 19.1589 66.0799 18.9954 66.0484 18.8343C66.017 18.6733 65.9758 18.4585 65.9371 18.2706C65.9129 18.1632 65.8912 18.0559 65.867 17.9461C64.9561 13.8265 62.9215 10.0458 59.993 7.03085C59.8334 6.86736 59.6689 6.7063 59.5092 6.54281L59.4584 6.49154C56.2523 3.38992 52.2269 1.2877 47.8653 0.437303C47.0137 0.266486 46.15 0.142021 45.2912 -0.00195312H45.2307H41.3454H41.2849C40.4261 0.142021 39.5648 0.266486 38.7108 0.437303C34.3493 1.2877 30.3238 3.38992 27.1177 6.49154L27.0645 6.54281C26.9024 6.70386 26.7379 6.86492 26.5807 7.03085C23.6506 10.0449 21.615 13.8259 20.7043 17.9461C20.6801 18.0559 20.6583 18.1632 20.6341 18.2706C20.5954 18.4585 20.5567 18.6464 20.5229 18.8343C20.489 19.0222 20.4648 19.1613 20.4382 19.3224C20.4116 19.4834 20.3922 19.6006 20.3729 19.7396C20.3438 19.9275 20.3196 20.1154 20.2954 20.3033C20.2809 20.4302 20.2664 20.5474 20.2543 20.684C20.2325 20.8719 20.2156 21.0598 20.1987 21.2477C20.1817 21.4356 20.1769 21.5674 20.1648 21.7358C20.1527 21.9041 20.1455 22.0359 20.1382 22.1872C20.1213 22.5411 20.1116 22.8949 20.1092 23.2536V24.7178C20.1092 26.1429 20.1092 27.5672 20.1092 28.9906C20.1092 31.138 20.1092 33.2854 20.1092 35.4329V36.631C19.6253 36.631 19.1632 36.6139 18.7157 36.631C17.6875 36.631 16.6883 36.631 15.6916 36.631C14.4886 36.6377 13.2898 36.7752 12.1159 37.041C12.0216 37.041 11.9248 37.0605 11.8304 37.0752C11.3345 37.139 10.8537 37.291 10.4103 37.5242C4.27269 39.6496 0.0535007 45.372 0.0341466 52.4414C0.00511555 62.9613 -0.0118181 73.4812 0.0655982 83.9986C0.0731221 85.7809 0.359709 87.5507 0.91476 89.2427C3.09209 95.7045 8.87171 99.7358 15.7448 99.7529H58.5657C60.1361 102.942 62.4486 105.699 65.3055 107.791C68.1623 109.882 71.4787 111.244 74.9711 111.762C78.4635 112.279 82.0282 111.936 85.3605 110.761C88.6928 109.587 91.6937 107.616 94.1067 105.017C96.5196 102.418 98.273 99.269 99.2168 95.8381C100.161 92.4073 100.267 88.7969 99.5268 85.3156C98.7866 81.8342 97.2217 78.5854 94.966 75.8468C92.7102 73.1081 89.8307 70.961 86.5734 69.589L86.5613 69.5939ZM27.8726 36.5163C27.8726 31.5651 27.8242 26.7236 27.9064 21.8749C27.9064 21.809 27.9064 21.7431 27.9064 21.6772C28.119 19.4947 28.7833 17.3814 29.8563 15.4741C29.9313 15.3423 30.0087 15.2154 30.0983 15.0885L30.1467 15.0056C31.531 12.8168 33.4352 11.0113 35.6865 9.75296C37.9379 8.49458 40.4651 7.82312 43.0389 7.79951H43.5227C46.0965 7.82312 48.6237 8.49458 50.8751 9.75296C53.1264 11.0113 55.0306 12.8168 56.4149 15.0056L56.4633 15.0885C56.5432 15.2154 56.6182 15.3326 56.7052 15.4741C57.7783 17.3814 58.4426 19.4947 58.6552 21.6772C58.6552 21.7431 58.6552 21.809 58.6552 21.8749C58.7374 26.7139 58.6915 31.5553 58.6891 36.5163C58.6891 36.5407 58.6891 36.5651 58.6891 36.5895H27.875C27.875 36.5651 27.8726 36.5407 27.8726 36.5163ZM7.74432 83.5179C7.74432 73.29 7.74432 63.063 7.74432 52.8367C7.74432 47.9391 10.7055 44.7278 15.3916 44.4471C15.5755 44.4471 15.7593 44.4349 15.9408 44.4349C25.0227 44.4349 34.1045 44.4349 43.1864 44.4349H43.3751C52.457 44.4349 61.5389 44.4349 70.6208 44.4349C70.8047 44.4349 70.9861 44.4349 71.17 44.4471C75.8561 44.7278 78.8148 47.9391 78.8173 52.8367C78.8173 57.8587 78.8173 62.88 78.8173 67.9004C78.5899 67.9004 78.3624 67.9004 78.1326 67.9004C72.3353 67.9068 66.7773 70.2325 62.6778 74.3671C58.5782 78.5017 56.272 84.1077 56.265 89.9553C56.265 90.6386 56.2988 91.3121 56.3593 91.9758H16.1246C10.9813 91.9636 7.74674 88.7035 7.74432 83.5179ZM78.1447 105.168C75.1593 105.168 72.2409 104.276 69.7584 102.603C67.276 100.931 65.341 98.5529 64.1982 95.771C63.0554 92.9891 62.7561 89.9279 63.3383 86.9744C63.9204 84.0209 65.3577 81.3079 67.4685 79.1785C69.5793 77.049 72.2688 75.5988 75.1968 75.0111C78.1247 74.4235 81.1597 74.7248 83.9179 75.8771C86.676 77.0293 89.0335 78.9807 90.6921 81.4845C92.3507 83.9882 93.236 86.9318 93.236 89.9431C93.2335 93.9825 91.6413 97.8557 88.8094 100.712C85.9774 103.568 82.1373 105.173 78.1326 105.175L78.1447 105.168Z" fill="black"/>
<path d="M80.0635 82.5977H76.2483V87.954H71.3203V91.712H76.2483V97.0415H80.0635V91.712H84.9915V87.954H80.0635V82.5977Z" fill="black"/>
</g>
<defs>
<clipPath id="clip0_2796_21664">
<rect width="100" height="112" fill="white"/>
</clipPath>
</defs>
</svg>
