<svg width="21" height="20" viewBox="0 0 21 20" fill="none" xmlns="http://www.w3.org/2000/svg">
<path d="M16.6859 2.5L5.06664 2.5C4.15369 2.5 3.40674 3.25 3.40674 4.16667L3.40674 15.8333C3.40674 16.75 4.15369 17.5 5.06664 17.5H16.6859C17.5989 17.5 18.3458 16.75 18.3458 15.8333V4.16667C18.3458 3.25 17.5989 2.5 16.6859 2.5ZM15.026 15.8333L6.72654 15.8333V15.6333C7.90507 14.6833 9.34918 14.1667 10.8763 14.1667C12.4034 14.1667 13.8475 14.6833 15.026 15.6333V15.8333ZM16.6859 14.8833C15.192 13.4083 13.1421 12.5 10.8763 12.5C8.61053 12.5 6.56055 13.4083 5.06664 14.8833L5.06664 4.16667L16.6859 4.16667V14.8833ZM10.8763 10.8333C12.4781 10.8333 13.7811 9.525 13.7811 7.91667C13.7811 6.30833 12.4781 5 10.8763 5C9.27449 5 7.97147 6.30833 7.97147 7.91667C7.97147 9.525 9.27449 10.8333 10.8763 10.8333ZM10.8763 6.66667C11.5652 6.66667 12.1212 7.225 12.1212 7.91667C12.1212 8.60833 11.5652 9.16667 10.8763 9.16667C10.1874 9.16667 9.63137 8.60833 9.63137 7.91667C9.63137 7.225 10.1874 6.66667 10.8763 6.66667Z" fill="#667085"/>
</svg>
