<svg width="19" height="19" viewBox="0 0 19 19" fill="none" xmlns="http://www.w3.org/2000/svg">
<path d="M3.16634 4.75016H1.58301V15.8335C1.58301 16.7043 2.29551 17.4168 3.16634 17.4168H14.2497V15.8335H3.16634V4.75016ZM15.833 1.5835H6.33301C5.46217 1.5835 4.74967 2.296 4.74967 3.16683V12.6668C4.74967 13.5377 5.46217 14.2502 6.33301 14.2502H15.833C16.7038 14.2502 17.4163 13.5377 17.4163 12.6668V3.16683C17.4163 2.296 16.7038 1.5835 15.833 1.5835ZM15.833 12.6668H6.33301V3.16683H15.833V12.6668ZM7.91634 7.12516H14.2497V8.7085H7.91634V7.12516ZM7.91634 9.50016H11.083V11.0835H7.91634V9.50016ZM7.91634 4.75016H14.2497V6.3335H7.91634V4.75016Z" fill="#344054"/>
</svg>
