<svg width="13" height="12" viewBox="0 0 13 12" fill="none" xmlns="http://www.w3.org/2000/svg">
<path d="M5.98334 9H7.03563V8H5.98334V9ZM6.50948 1C3.60517 1 1.24805 3.24 1.24805 6C1.24805 8.76 3.60517 11 6.50948 11C9.4138 11 11.7709 8.76 11.7709 6C11.7709 3.24 9.4138 1 6.50948 1ZM6.50948 10C4.18919 10 2.30033 8.205 2.30033 6C2.30033 3.795 4.18919 2 6.50948 2C8.82978 2 10.7186 3.795 10.7186 6C10.7186 8.205 8.82978 10 6.50948 10ZM6.50948 3C5.34671 3 4.40491 3.895 4.40491 5H5.4572C5.4572 4.45 5.93073 4 6.50948 4C7.08824 4 7.56177 4.45 7.56177 5C7.56177 6 5.98334 5.875 5.98334 7.5H7.03563C7.03563 6.375 8.61406 6.25 8.61406 5C8.61406 3.895 7.67226 3 6.50948 3Z" fill="#344054"/>
</svg>
