<svg width="4" height="16" viewBox="0 0 4 16" fill="none" xmlns="http://www.w3.org/2000/svg">
<path fill-rule="evenodd" clip-rule="evenodd" d="M1.99935 4.33366C3.00768 4.33366 3.83268 3.50866 3.83268 2.50033C3.83268 1.49199 3.00768 0.666992 1.99935 0.666992C0.991016 0.666992 0.166016 1.49199 0.166016 2.50033C0.166016 3.50866 0.991016 4.33366 1.99935 4.33366ZM1.99935 6.16699C0.991016 6.16699 0.166016 6.99199 0.166016 8.00033C0.166016 9.00866 0.991016 9.83366 1.99935 9.83366C3.00768 9.83366 3.83268 9.00866 3.83268 8.00033C3.83268 6.99199 3.00768 6.16699 1.99935 6.16699ZM0.166016 13.5003C0.166016 12.492 0.991016 11.667 1.99935 11.667C3.00768 11.667 3.83268 12.492 3.83268 13.5003C3.83268 14.5087 3.00768 15.3337 1.99935 15.3337C0.991016 15.3337 0.166016 14.5087 0.166016 13.5003Z" fill="#667085"/>
</svg>
