<svg width="21" height="20" viewBox="0 0 21 20" fill="none" xmlns="http://www.w3.org/2000/svg">
<g clip-path="url(#clip0_3447_20878)">
<path d="M6.16241 10.8423C6.95916 10.859 7.69781 11.259 8.19579 11.959C8.80165 12.8173 9.80589 13.334 10.8765 13.334C11.9472 13.334 12.9514 12.8173 13.5573 11.9507C14.0552 11.2507 14.7939 10.8507 15.5906 10.834C14.9931 9.81732 12.6028 9.16732 10.8765 9.16732C9.15853 9.16732 6.75997 9.81732 6.16241 10.8423Z" fill="#667085"/>
<path d="M4.23692 10.834C5.61464 10.834 6.72677 9.71732 6.72677 8.33398C6.72677 6.95065 5.61464 5.83398 4.23692 5.83398C2.8592 5.83398 1.74707 6.95065 1.74707 8.33398C1.74707 9.71732 2.8592 10.834 4.23692 10.834Z" fill="#667085"/>
<path d="M17.5161 10.834C18.8938 10.834 20.006 9.71732 20.006 8.33398C20.006 6.95065 18.8938 5.83398 17.5161 5.83398C16.1384 5.83398 15.0263 6.95065 15.0263 8.33398C15.0263 9.71732 16.1384 10.834 17.5161 10.834Z" fill="#667085"/>
<path d="M10.8765 8.33398C12.2542 8.33398 13.3664 7.21732 13.3664 5.83398C13.3664 4.45065 12.2542 3.33398 10.8765 3.33398C9.49881 3.33398 8.38667 4.45065 8.38667 5.83398C8.38667 7.21732 9.49881 8.33398 10.8765 8.33398Z" fill="#667085"/>
<path d="M18.3461 11.6673H15.6321C14.9931 11.6673 14.5117 12.0423 14.2378 12.434C14.2046 12.484 13.1091 14.1673 10.8765 14.1673C9.6897 14.1673 8.36177 13.634 7.51523 12.434C7.19154 11.9757 6.68528 11.6673 6.12091 11.6673H3.40697C2.49403 11.6673 1.74707 12.4173 1.74707 13.334L1.74707 16.6673H7.55672V14.784C8.51117 15.4507 9.6648 15.834 10.8765 15.834C12.0883 15.834 13.2419 15.4507 14.1963 14.784V16.6673H20.006V13.334C20.006 12.4173 19.259 11.6673 18.3461 11.6673Z" fill="#667085"/>
</g>
<defs>
<clipPath id="clip0_3447_20878">
<rect width="19.9188" height="20" fill="white" transform="translate(0.916992)"/>
</clipPath>
</defs>
</svg>
