<svg width="21" height="20" viewBox="0 0 21 20" fill="none" xmlns="http://www.w3.org/2000/svg">
<path d="M9.5657 5.83335H11.1929V7.50002H9.5657V5.83335ZM9.5657 9.16669H11.1929V14.1667H9.5657V9.16669ZM10.3793 1.66669C5.88816 1.66669 2.24316 5.40002 2.24316 10C2.24316 14.6 5.88816 18.3334 10.3793 18.3334C14.8705 18.3334 18.5155 14.6 18.5155 10C18.5155 5.40002 14.8705 1.66669 10.3793 1.66669ZM10.3793 16.6667C6.79128 16.6667 3.8704 13.675 3.8704 10C3.8704 6.32502 6.79128 3.33335 10.3793 3.33335C13.9674 3.33335 16.8882 6.32502 16.8882 10C16.8882 13.675 13.9674 16.6667 10.3793 16.6667Z" fill="#D0D5DD"/>
</svg>
