<svg width="22" height="22" viewBox="0 0 22 22" fill="none" xmlns="http://www.w3.org/2000/svg">
<path d="M3.66634 5.49992H1.83301V18.3333C1.83301 19.3416 2.65801 20.1666 3.66634 20.1666H16.4997V18.3333H3.66634V5.49992ZM12.833 10.0833C14.3547 10.0833 15.583 8.85492 15.583 7.33325C15.583 5.81159 14.3547 4.58325 12.833 4.58325C11.3113 4.58325 10.083 5.81159 10.083 7.33325C10.083 8.85492 11.3113 10.0833 12.833 10.0833ZM12.833 6.41658C13.3372 6.41658 13.7497 6.82908 13.7497 7.33325C13.7497 7.83742 13.3372 8.24992 12.833 8.24992C12.3288 8.24992 11.9163 7.83742 11.9163 7.33325C11.9163 6.82908 12.3288 6.41658 12.833 6.41658ZM18.333 1.83325H7.33301C6.32467 1.83325 5.49967 2.65825 5.49967 3.66659V14.6666C5.49967 15.6749 6.32467 16.4999 7.33301 16.4999H18.333C19.3413 16.4999 20.1663 15.6749 20.1663 14.6666V3.66659C20.1663 2.65825 19.3413 1.83325 18.333 1.83325ZM9.79884 14.6666C10.6697 14.0891 11.7147 13.7499 12.833 13.7499C13.9513 13.7499 14.9963 14.0891 15.8672 14.6666H9.79884ZM18.333 14.4191C16.9855 12.8883 15.033 11.9166 12.833 11.9166C10.633 11.9166 8.68051 12.8883 7.33301 14.4191V3.66659H18.333V14.4191Z" fill="#616A75"/>
</svg>
