<svg width="20" height="20" viewBox="0 0 20 20" fill="none" xmlns="http://www.w3.org/2000/svg">
<path d="M2.66634 4.49967H0.833008V17.333C0.833008 18.3413 1.65801 19.1663 2.66634 19.1663H15.4997V17.333H2.66634V4.49967ZM11.833 9.08301C13.3547 9.08301 14.583 7.85467 14.583 6.33301C14.583 4.81134 13.3547 3.58301 11.833 3.58301C10.3113 3.58301 9.08301 4.81134 9.08301 6.33301C9.08301 7.85467 10.3113 9.08301 11.833 9.08301ZM11.833 5.41634C12.3372 5.41634 12.7497 5.82884 12.7497 6.33301C12.7497 6.83717 12.3372 7.24967 11.833 7.24967C11.3288 7.24967 10.9163 6.83717 10.9163 6.33301C10.9163 5.82884 11.3288 5.41634 11.833 5.41634ZM17.333 0.833008H6.33301C5.32467 0.833008 4.49967 1.65801 4.49967 2.66634V13.6663C4.49967 14.6747 5.32467 15.4997 6.33301 15.4997H17.333C18.3413 15.4997 19.1663 14.6747 19.1663 13.6663V2.66634C19.1663 1.65801 18.3413 0.833008 17.333 0.833008ZM8.79884 13.6663C9.66967 13.0888 10.7147 12.7497 11.833 12.7497C12.9513 12.7497 13.9963 13.0888 14.8672 13.6663H8.79884ZM17.333 13.4188C15.9855 11.888 14.033 10.9163 11.833 10.9163C9.63301 10.9163 7.68051 11.888 6.33301 13.4188V2.66634H17.333V13.4188Z" fill="#616A75"/>
</svg>
