<svg width="19" height="19" viewBox="0 0 19 19" fill="none" xmlns="http://www.w3.org/2000/svg">
<path d="M9.02359 14.5225C6.24109 14.3912 4.02734 12.0988 4.02734 9.28125C4.02734 6.385 6.38109 4.03125 9.27734 4.03125C12.0948 4.03125 14.3873 6.245 14.5186 9.0275L12.6811 8.47625C12.3223 6.9275 10.9311 5.78125 9.27734 5.78125C7.34359 5.78125 5.77734 7.3475 5.77734 9.28125C5.77734 10.935 6.92359 12.3263 8.47234 12.685L9.02359 14.5225ZM18.0273 9.28125C18.0273 9.54375 18.0186 9.80625 17.9923 10.0687L16.2686 9.5525C16.2773 9.465 16.2773 9.36875 16.2773 9.28125C16.2773 5.41375 13.1448 2.28125 9.27734 2.28125C5.40984 2.28125 2.27734 5.41375 2.27734 9.28125C2.27734 13.1488 5.40984 16.2812 9.27734 16.2812C9.36484 16.2812 9.46109 16.2812 9.54859 16.2725L10.0648 17.9963C9.80234 18.0225 9.53984 18.0312 9.27734 18.0312C4.44734 18.0312 0.527344 14.1112 0.527344 9.28125C0.527344 4.45125 4.44734 0.53125 9.27734 0.53125C14.1073 0.53125 18.0273 4.45125 18.0273 9.28125ZM14.7286 13.0087L18.0273 11.9062L9.27734 9.28125L11.9023 18.0312L13.0048 14.7325L16.7411 18.4688L18.4736 16.7362L14.7286 13.0087Z" fill="#616A75"/>
</svg>
