<svg width="21" height="21" viewBox="0 0 21 21" fill="none" xmlns="http://www.w3.org/2000/svg">
<path d="M10.0236 15.5225C7.24109 15.3912 5.02734 13.0988 5.02734 10.2812C5.02734 7.385 7.38109 5.03125 10.2773 5.03125C13.0948 5.03125 15.3873 7.245 15.5186 10.0275L13.6811 9.47625C13.3223 7.9275 11.9311 6.78125 10.2773 6.78125C8.34359 6.78125 6.77734 8.3475 6.77734 10.2812C6.77734 11.935 7.92359 13.3263 9.47234 13.685L10.0236 15.5225ZM19.0273 10.2812C19.0273 10.5437 19.0186 10.8062 18.9923 11.0687L17.2686 10.5525C17.2773 10.465 17.2773 10.3687 17.2773 10.2812C17.2773 6.41375 14.1448 3.28125 10.2773 3.28125C6.40984 3.28125 3.27734 6.41375 3.27734 10.2812C3.27734 14.1488 6.40984 17.2812 10.2773 17.2812C10.3648 17.2812 10.4611 17.2812 10.5486 17.2725L11.0648 18.9963C10.8023 19.0225 10.5398 19.0312 10.2773 19.0312C5.44734 19.0312 1.52734 15.1112 1.52734 10.2812C1.52734 5.45125 5.44734 1.53125 10.2773 1.53125C15.1073 1.53125 19.0273 5.45125 19.0273 10.2812ZM15.7286 14.0087L19.0273 12.9062L10.2773 10.2812L12.9023 19.0312L14.0048 15.7325L17.7411 19.4688L19.4736 17.7362L15.7286 14.0087Z" fill="#616A75"/>
</svg>
