<svg width="30" height="18" viewBox="0 0 30 18" fill="none" xmlns="http://www.w3.org/2000/svg">
<path d="M17.9166 8.63226C17.9166 13.2616 13.9168 17.0145 8.98271 17.0145C4.04866 17.0145 0.0488281 13.2616 0.0488281 8.63226C0.0488281 4.0029 4.04866 0.250061 8.98271 0.250061C13.9168 0.250061 17.9166 4.0029 17.9166 8.63226Z" fill="#ED0006"/>
<path d="M29.5064 8.63226C29.5064 13.2616 25.5066 17.0145 20.5726 17.0145C15.6385 17.0145 11.6387 13.2616 11.6387 8.63226C11.6387 4.0029 15.6385 0.250061 20.5726 0.250061C25.5066 0.250061 29.5064 4.0029 29.5064 8.63226Z" fill="#2F80ED"/>
<path fill-rule="evenodd" clip-rule="evenodd" d="M14.7775 15.012C12.8567 13.4745 11.6387 11.1868 11.6387 8.6322C11.6387 6.07759 12.8567 3.78989 14.7775 2.25244C16.6984 3.78989 17.9164 6.07759 17.9164 8.6322C17.9164 11.1868 16.6984 13.4745 14.7775 15.012Z" fill="#6C6BBD"/>
</svg>
