<svg width="31" height="18" viewBox="0 0 31 18" fill="none" xmlns="http://www.w3.org/2000/svg">
<path fill-rule="evenodd" clip-rule="evenodd" d="M15.329 15.0369C13.7332 16.2844 11.6632 17.0375 9.40128 17.0375C4.35418 17.0375 0.262695 13.2879 0.262695 8.66254C0.262695 4.03715 4.35418 0.287537 9.40128 0.287537C11.6632 0.287537 13.7332 1.04066 15.329 2.28821C16.9248 1.04066 18.9948 0.287537 21.2567 0.287537C26.3038 0.287537 30.3953 4.03715 30.3953 8.66254C30.3953 13.2879 26.3038 17.0375 21.2567 17.0375C18.9948 17.0375 16.9248 16.2844 15.329 15.0369Z" fill="#ED0006"/>
<path fill-rule="evenodd" clip-rule="evenodd" d="M15.3291 15.0369C17.2941 13.5008 18.54 11.215 18.54 8.66254C18.54 6.11006 17.2941 3.82428 15.3291 2.28815C16.9249 1.04064 18.9949 0.287537 21.2568 0.287537C26.3039 0.287537 30.3953 4.03715 30.3953 8.66254C30.3953 13.2879 26.3039 17.0375 21.2568 17.0375C18.9949 17.0375 16.9249 16.2844 15.3291 15.0369Z" fill="#F9A000"/>
<path fill-rule="evenodd" clip-rule="evenodd" d="M15.329 15.0368C17.2939 13.5007 18.5398 11.2149 18.5398 8.66251C18.5398 6.11008 17.2939 3.82434 15.329 2.28821C13.3641 3.82434 12.1182 6.11008 12.1182 8.66251C12.1182 11.2149 13.3641 13.5007 15.329 15.0368Z" fill="#FD6020"/>
</svg>
