<svg width="40" height="40" viewBox="0 0 40 40" fill="none" xmlns="http://www.w3.org/2000/svg">
<g clip-path="url(#clip0_758_6666)">
<path d="M24.167 12.5C24.3859 12.2812 24.6457 12.1076 24.9317 11.9891C25.2176 11.8707 25.5241 11.8097 25.8337 11.8097C26.1432 11.8097 26.4497 11.8707 26.7357 11.9891C27.0216 12.1076 27.2815 12.2812 27.5003 12.5C27.7192 12.7189 27.8928 12.9788 28.0113 13.2647C28.1297 13.5507 28.1907 13.8572 28.1907 14.1667C28.1907 14.4762 28.1297 14.7827 28.0113 15.0687C27.8928 15.3547 27.7192 15.6145 27.5003 15.8334L16.2503 27.0834L11.667 28.3334L12.917 23.75L24.167 12.5Z" stroke="#475467" stroke-width="1.66667" stroke-linecap="round" stroke-linejoin="round"/>
</g>
<defs>
<clipPath id="clip0_758_6666">
<rect width="20" height="20" fill="white" transform="translate(10 10)"/>
</clipPath>
</defs>
</svg>
