<svg width="20" height="20" viewBox="0 0 20 20" fill="none" xmlns="http://www.w3.org/2000/svg">
<path d="M12.4997 9.99967C14.3413 9.99967 15.833 8.50801 15.833 6.66634C15.833 4.82467 14.3413 3.33301 12.4997 3.33301C10.658 3.33301 9.16634 4.82467 9.16634 6.66634C9.16634 8.50801 10.658 9.99967 12.4997 9.99967ZM12.4997 4.99967C13.4163 4.99967 14.1663 5.74967 14.1663 6.66634C14.1663 7.58301 13.4163 8.33301 12.4997 8.33301C11.583 8.33301 10.833 7.58301 10.833 6.66634C10.833 5.74967 11.583 4.99967 12.4997 4.99967ZM12.4997 11.6663C10.2747 11.6663 5.83301 12.783 5.83301 14.9997V16.6663H19.1663V14.9997C19.1663 12.783 14.7247 11.6663 12.4997 11.6663ZM7.49967 14.9997C7.68301 14.3997 10.258 13.333 12.4997 13.333C14.7497 13.333 17.333 14.408 17.4997 14.9997H7.49967ZM4.99967 12.4997V9.99967H7.49967V8.33301H4.99967V5.83301H3.33301V8.33301H0.833008V9.99967H3.33301V12.4997H4.99967Z" fill="#404040"/>
</svg>
