<svg width="15" height="16" viewBox="0 0 15 16" fill="none" xmlns="http://www.w3.org/2000/svg">
<g clip-path="url(#clip0_15_8229)">
<path d="M9.1998 7.99971C10.5258 7.99971 11.5998 6.92571 11.5998 5.59971C11.5998 4.27371 10.5258 3.19971 9.1998 3.19971C7.8738 3.19971 6.7998 4.27371 6.7998 5.59971C6.7998 6.92571 7.8738 7.99971 9.1998 7.99971ZM9.1998 4.39971C9.8598 4.39971 10.3998 4.93971 10.3998 5.59971C10.3998 6.25971 9.8598 6.79971 9.1998 6.79971C8.5398 6.79971 7.9998 6.25971 7.9998 5.59971C7.9998 4.93971 8.5398 4.39971 9.1998 4.39971ZM9.1998 9.19971C7.5978 9.19971 4.3998 10.0037 4.3998 11.5997V12.7997H13.9998V11.5997C13.9998 10.0037 10.8018 9.19971 9.1998 9.19971ZM5.5998 11.5997C5.7318 11.1677 7.5858 10.3997 9.1998 10.3997C10.8198 10.3997 12.6798 11.1737 12.7998 11.5997H5.5998ZM3.7998 9.79971V7.99971H5.5998V6.79971H3.7998V4.99971H2.5998V6.79971H0.799805V7.99971H2.5998V9.79971H3.7998Z" fill="#F1F2F4"/>
</g>
<defs>
<clipPath id="clip0_15_8229">
<rect x="0.200195" y="0.799805" width="14.4" height="14.4" rx="7.2" fill="white"/>
</clipPath>
</defs>
</svg>
