<svg width="10" height="10" viewBox="0 0 10 10" fill="none" xmlns="http://www.w3.org/2000/svg">
<g clip-path="url(#clip0_1894_13342)">
<rect y="0.386719" width="9.2437" height="9.2437" rx="4.62185" fill="#E6DA53" fill-opacity="0.7"/>
<path d="M3.54395 2.73438H5.05273C5.37695 2.73438 5.65332 2.7832 5.88184 2.88086C6.11035 2.97852 6.28516 3.12305 6.40625 3.31445C6.5293 3.50391 6.59082 3.73828 6.59082 4.01758C6.59082 4.23047 6.55176 4.41797 6.47363 4.58008C6.39551 4.74219 6.28516 4.87891 6.14258 4.99023C6 5.09961 5.83008 5.18457 5.63281 5.24512L5.41016 5.35352H4.05371L4.04785 4.77051H5.06445C5.24023 4.77051 5.38672 4.73926 5.50391 4.67676C5.62109 4.61426 5.70898 4.5293 5.76758 4.42188C5.82812 4.3125 5.8584 4.18945 5.8584 4.05273C5.8584 3.9043 5.8291 3.77539 5.77051 3.66602C5.71387 3.55469 5.62598 3.46973 5.50684 3.41113C5.3877 3.35059 5.23633 3.32031 5.05273 3.32031H4.2793V7H3.54395V2.73438ZM5.97852 7L4.97656 5.08398L5.74707 5.08105L6.76367 6.96191V7H5.97852Z" fill="#1F2124"/>
</g>
<defs>
<clipPath id="clip0_1894_13342">
<rect y="0.386719" width="9.2437" height="9.2437" rx="4.62185" fill="white"/>
</clipPath>
</defs>
</svg>
