<svg width="33" height="10" viewBox="0 0 33 10" fill="none" xmlns="http://www.w3.org/2000/svg">
<path fill-rule="evenodd" clip-rule="evenodd" d="M8.02328 9.82277H5.24729L3.16564 2.24042C3.06683 1.89163 2.85704 1.58329 2.54845 1.43796C1.77832 1.07274 0.929687 0.782085 0.00390625 0.635493V0.343573H4.47581C5.09299 0.343573 5.55588 0.782085 5.63303 1.29137L6.71311 6.76076L9.48774 0.343573H12.1866L8.02328 9.82277ZM13.7296 9.82277H11.1079L13.2667 0.343573H15.8884L13.7296 9.82277ZM19.2802 2.96964C19.3574 2.4591 19.8202 2.16718 20.3603 2.16718C21.2089 2.09388 22.1333 2.24047 22.9048 2.60443L23.3677 0.563512C22.5962 0.271592 21.7476 0.125 20.9775 0.125C18.4329 0.125 16.5814 1.43801 16.5814 3.2603C16.5814 4.6466 17.8929 5.37451 18.8187 5.81302C19.8202 6.25027 20.206 6.54219 20.1288 6.97944C20.1288 7.63531 19.3574 7.92723 18.5872 7.92723C17.6614 7.92723 16.7357 7.70861 15.8884 7.34339L15.4255 9.38557C16.3513 9.74952 17.3529 9.89611 18.2786 9.89611C21.1318 9.96814 22.9048 8.6564 22.9048 6.68752C22.9048 4.20809 19.2802 4.06276 19.2802 2.96964ZM32.0799 9.82277L29.9983 0.343573H27.7623C27.2994 0.343573 26.8366 0.635493 26.6823 1.07274L22.8275 9.82277H25.5264L26.0651 8.43773H29.3811L29.6897 9.82277H32.0799ZM28.1482 2.89625L28.9184 6.46879H26.7596L28.1482 2.89625Z" fill="#28356A"/>
</svg>
